# Blender v2.93.1 OBJ File: 'empty_wall.blend'
# www.blender.org
mtllib door_wall.mtl
o Cube
v 0.150000 6.000000 -4.000000
v 0.150000 0.000000 -4.000000
v 0.150000 6.000000 4.000000
v 0.150000 0.000000 4.000000
v -0.150000 6.000000 -4.000000
v -0.150000 0.000000 -4.000000
v -0.150000 6.000000 4.000000
v -0.150000 0.000000 4.000000
v -0.150000 4.250000 -1.000000
v -0.150000 4.250000 1.000000
v -0.150000 0.000000 1.000000
v -0.150000 0.000000 -1.000000
v 0.150000 0.000000 1.000000
v 0.150000 0.000000 -1.000000
v 0.150000 4.250000 1.000000
v 0.150000 4.250000 -1.000000
vt 0.625000 0.500000
vt 0.875000 0.500000
vt 0.875000 0.750000
vt 0.625000 0.750000
vt 0.375000 0.750000
vt 0.625000 1.000000
vt 0.375000 1.000000
vt 0.375000 0.000000
vt 0.625000 0.000000
vt 0.625000 0.250000
vt 0.375000 0.250000
vt 0.375000 0.156250
vt 0.552083 0.156250
vt 0.552083 0.093750
vt 0.375000 0.093750
vt 0.125000 0.750000
vt 0.125000 0.656250
vt 0.375000 0.656250
vt 0.125000 0.593750
vt 0.125000 0.500000
vt 0.375000 0.500000
vt 0.375000 0.593750
vt 0.552083 0.656250
vt 0.552083 0.593750
vt 0.000000 0.000000
vt 0.000000 0.000000
vt 0.000000 0.000000
vt 0.000000 0.000000
vt 0.000000 0.000000
vt 0.000000 0.000000
vt 0.000000 0.000000
vt 0.000000 0.000000
vn 0.0000 1.0000 0.0000
vn 0.0000 0.0000 1.0000
vn -1.0000 0.0000 0.0000
vn 0.0000 -1.0000 0.0000
vn 1.0000 0.0000 0.0000
vn 0.0000 0.0000 -1.0000
usemtl Material
s off
f 1/1/1 5/2/1 7/3/1 3/4/1
f 4/5/2 3/4/2 7/6/2 8/7/2
f 8/8/3 7/9/3 5/10/3 6/11/3 12/12/3 9/13/3 10/14/3 11/15/3
f 4/5/4 8/16/4 11/17/4 13/18/4
f 12/19/4 6/20/4 2/21/4 14/22/4
f 2/21/5 1/1/5 3/4/5 4/5/5 13/18/5 15/23/5 16/24/5 14/22/5
f 6/11/6 5/10/6 1/1/6 2/21/6
f 16/25/2 9/26/2 12/27/2 14/28/2
f 13/29/6 11/30/6 10/31/6 15/32/6
f 9/26/4 16/25/4 15/32/4 10/31/4
