# Blender v2.93.1 OBJ File: 'door_wall.blend'
# www.blender.org
mtllib window_wall.mtl
o Cube
v 0.150000 6.000000 -4.000000
v 0.150000 0.000000 -4.000000
v 0.150000 6.000000 4.000000
v 0.150000 0.000000 4.000000
v -0.150000 6.000000 -4.000000
v -0.150000 0.000000 -4.000000
v -0.150000 6.000000 4.000000
v -0.150000 0.000000 4.000000
v -0.150000 2.000000 2.000000
v -0.150000 5.000000 2.000000
v -0.150000 5.000000 -2.000000
v -0.150000 2.000000 -2.000000
v 0.150000 5.000000 2.000000
v 0.150000 2.000000 -2.000000
v 0.150000 5.000000 -2.000000
v 0.150000 2.000000 2.000000
vt 0.625000 0.500000
vt 0.875000 0.500000
vt 0.875000 0.750000
vt 0.625000 0.750000
vt 0.375000 0.750000
vt 0.625000 1.000000
vt 0.375000 1.000000
vt 0.583333 0.187500
vt 0.625000 0.250000
vt 0.375000 0.250000
vt 0.375000 0.000000
vt 0.625000 0.000000
vt 0.583333 0.062500
vt 0.458333 0.062500
vt 0.458333 0.187500
vt 0.125000 0.500000
vt 0.375000 0.500000
vt 0.125000 0.750000
vt 0.583333 0.562500
vt 0.458333 0.562500
vt 0.458333 0.687500
vt 0.583333 0.687500
vt 0.000000 0.000000
vt 0.000000 0.000000
vt 0.000000 0.000000
vt 0.000000 0.000000
vt 0.000000 0.000000
vt 0.000000 0.000000
vt 0.000000 0.000000
vt 0.000000 0.000000
vn 0.0000 1.0000 0.0000
vn 0.0000 0.0000 1.0000
vn -1.0000 0.0000 0.0000
vn 0.0000 -1.0000 0.0000
vn 1.0000 0.0000 0.0000
vn 0.0000 0.0000 -1.0000
usemtl Material
s off
f 1/1/1 5/2/1 7/3/1 3/4/1
f 4/5/2 3/4/2 7/6/2 8/7/2
f 11/8/3 5/9/3 6/10/3 8/11/3 7/12/3 10/13/3 9/14/3 12/15/3
f 7/12/3 5/9/3 11/8/3 10/13/3
f 6/16/4 2/17/4 4/5/4 8/18/4
f 3/4/5 4/5/5 2/17/5 1/1/5 15/19/5 14/20/5 16/21/5 13/22/5
f 15/19/5 1/1/5 3/4/5 13/22/5
f 6/10/6 5/9/6 1/1/6 2/17/6
f 15/23/2 11/24/2 12/25/2 14/26/2
f 16/27/6 9/28/6 10/29/6 13/30/6
f 14/26/1 12/25/1 9/28/1 16/27/1
f 11/24/4 15/23/4 13/30/4 10/29/4
